<svg xmlns="http://www.w3.org/2000/svg" viewBox="0 0 100 100" width="500px" height="500px">
  <path d="M 44.138672 11 C 42.950275 11 41.920645 11.844041 41.6875 13.009766 A 0.50005 0.50005 0 0 0 41.685547 13.019531 L 40.082031 22 L 39.5 22 C 37.020742 22 35 24.020742 35 26.5 L 35 27 L 31 27 C 23.27961 27 17 33.27961 17 41 L 17 43.173828 L 13 43.947266 L 13 25.910156 C 14.154334 25.709001 15.088113 25.168207 15.748047 24.425781 C 16.589683 23.47894 17 22.236111 17 21 C 17 19.763889 16.589683 18.52106 15.748047 17.574219 C 14.906411 16.627378 13.624999 16 12 16 C 10.375001 16 9.0935892 16.627378 8.2519531 17.574219 C 7.4103171 18.52106 7 19.763889 7 21 C 7 22.236111 7.4103171 23.47894 8.2519531 24.425781 C 8.9118871 25.168207 9.8456665 25.709001 11 25.910156 L 11 44.333984 L 10.160156 44.496094 A 1.0001 1.0001 0 0 0 10.132812 44.5 C 8.3084543 44.905561 7 46.536997 7 48.40625 L 7 56.59375 C 7 58.463673 8.3089063 60.092587 10.132812 60.498047 A 1.0001 1.0001 0 0 0 10.160156 60.503906 L 17 61.826172 L 17 73 C 17 80.72039 23.27961 87 31 87 L 68 87 C 75.72039 87 82 80.72039 82 73 L 82 61.826172 L 88.839844 60.503906 A 1.0001 1.0001 0 0 0 88.867188 60.498047 C 90.691098 60.092628 92 58.463673 92 56.59375 L 92 48.40625 C 92 46.536997 90.691546 44.905561 88.867188 44.5 A 1.0001 1.0001 0 0 0 88.839844 44.496094 L 88 44.333984 L 88 25.910156 C 89.154334 25.709001 90.088113 25.168207 90.748047 24.425781 C 91.589683 23.47894 92 22.236111 92 21 C 92 19.763889 91.589683 18.52106 90.748047 17.574219 C 89.906411 16.627378 88.624999 16 87 16 C 85.375001 16 84.093589 16.627378 83.251953 17.574219 C 82.410317 18.52106 82 19.763889 82 21 C 82 22.236111 82.410317 23.47894 83.251953 24.425781 C 83.911887 25.168207 84.845666 25.709001 86 25.910156 L 86 43.947266 L 82 43.173828 L 82 41 C 82 33.27961 75.72039 27 68 27 L 64 27 L 64 26.5 C 64 24.020742 61.979258 22 59.5 22 L 58.917969 22 L 57.3125 13.019531 A 0.50005 0.50005 0 0 0 57.310547 13.009766 C 57.077449 11.844076 56.047772 11 54.859375 11 L 44.138672 11 z M 44.138672 12 L 54.859375 12 C 55.576978 12 56.189223 12.502756 56.330078 13.207031 L 57.902344 22 L 41.097656 22 L 42.667969 13.207031 C 42.808824 12.502756 43.421069 12 44.138672 12 z M 12 17 C 13.374999 17 14.34359 17.497622 15.001953 18.238281 C 15.660316 18.97894 16 19.986111 16 21 C 16 22.013889 15.660316 23.02106 15.001953 23.761719 C 14.34359 24.502378 13.374999 25 12 25 C 10.625001 25 9.6564102 24.502378 8.9980469 23.761719 C 8.3396836 23.02106 8 22.013889 8 21 C 8 19.986111 8.3396836 18.97894 8.9980469 18.238281 C 9.6564102 17.497622 10.625001 17 12 17 z M 87 17 C 88.374999 17 89.34359 17.497622 90.001953 18.238281 C 90.660316 18.97894 91 19.986111 91 21 C 91 22.013889 90.660316 23.02106 90.001953 23.761719 C 89.34359 24.502378 88.374999 25 87 25 C 85.625001 25 84.65641 24.502378 83.998047 23.761719 C 83.339684 23.02106 83 22.013889 83 21 C 83 19.986111 83.339684 18.97894 83.998047 18.238281 C 84.65641 17.497622 85.625001 17 87 17 z M 39.5 23 L 40.476562 23 L 58.5 23 L 59.5 23 C 61.438742 23 63 24.561258 63 26.5 L 63 27 L 36 27 L 36 26.5 C 36 24.561258 37.561258 23 39.5 23 z M 31 29 L 68 29 C 74.63961 29 80 34.36039 80 41 L 80 44 L 80 61 L 80 73 C 80 79.63961 74.63961 85 68 85 L 31 85 C 24.36039 85 19 79.63961 19 73 L 19 61 L 19 44 L 19 41 C 19 34.36039 24.36039 29 31 29 z M 35 39 C 30.035357 39 26 43.03536 26 48 C 26 52.96464 30.035357 57 35 57 C 39.964643 57 44 52.96464 44 48 C 44 43.03536 39.964643 39 35 39 z M 64 39 C 59.035357 39 55 43.03536 55 48 C 55 52.96464 59.035357 57 64 57 C 68.964643 57 73 52.96464 73 48 C 73 43.03536 68.964643 39 64 39 z M 35 40 C 39.424204 40 43 43.575799 43 48 C 43 52.424201 39.424204 56 35 56 C 30.575796 56 27 52.424201 27 48 C 27 43.575799 30.575796 40 35 40 z M 64 40 C 68.424204 40 72 43.575799 72 48 C 72 52.424201 68.424204 56 64 56 C 59.575796 56 56 52.424201 56 48 C 56 43.575799 59.575796 40 64 40 z M 35 44 C 32.794 44 31 45.794 31 48 C 31 50.206 32.794 52 35 52 C 37.206 52 39 50.206 39 48 C 39 45.794 37.206 44 35 44 z M 64 44 C 61.794 44 60 45.794 60 48 C 60 50.206 61.794 52 64 52 C 66.206 52 68 50.206 68 48 C 68 45.794 66.206 44 64 44 z M 17 45.212891 L 17 59.787109 L 10.539062 58.541016 L 10.566406 58.544922 C 9.6463172 58.340388 9 57.537827 9 56.59375 L 9 48.40625 C 9 47.464092 9.6457285 46.658187 10.564453 46.453125 L 10.566406 46.453125 L 17 45.212891 z M 82 45.212891 L 88.433594 46.453125 C 88.433594 46.453125 88.435547 46.453125 88.435547 46.453125 C 89.354225 46.658187 90 47.464092 90 48.40625 L 90 56.59375 C 90 57.537827 89.353687 58.340382 88.433594 58.544922 L 88.460938 58.541016 L 82 59.787109 L 82 45.212891 z M 37.492188 64.992188 A 0.50005 0.50005 0 0 0 37.417969 65 L 31.5 65 A 0.50005 0.50005 0 0 0 31 65.5 L 31 71.5 C 31 75.048579 33.859312 77.937031 37.394531 77.994141 A 0.50005 0.50005 0 0 0 37.582031 78 L 43.419922 78 A 0.50005 0.50005 0 0 0 43.582031 78 L 49.419922 78 A 0.50005 0.50005 0 0 0 49.582031 78 L 55.419922 78 A 0.50005 0.50005 0 0 0 55.582031 78 L 61.419922 78 A 0.50005 0.50005 0 0 0 61.613281 77.994141 C 65.144878 77.932875 68 75.04595 68 71.5 L 68 65.5 A 0.50005 0.50005 0 0 0 67.5 65 L 61.591797 65 A 0.50005 0.50005 0 0 0 61.492188 64.992188 A 0.50005 0.50005 0 0 0 61.417969 65 L 55.591797 65 A 0.50005 0.50005 0 0 0 55.492188 64.992188 A 0.50005 0.50005 0 0 0 55.417969 65 L 49.591797 65 A 0.50005 0.50005 0 0 0 49.492188 64.992188 A 0.50005 0.50005 0 0 0 49.417969 65 L 43.591797 65 A 0.50005 0.50005 0 0 0 43.492188 64.992188 A 0.50005 0.50005 0 0 0 43.417969 65 L 37.591797 65 A 0.50005 0.50005 0 0 0 37.492188 64.992188 z M 32 66 L 37 66 L 37 69.5 A 0.50005 0.50005 0 1 0 38 69.5 L 38 66 L 43 66 L 43 77 L 38 77 L 38 71.5 A 0.50005 0.50005 0 0 0 37.492188 70.992188 A 0.50005 0.50005 0 0 0 37 71.5 L 37 76.974609 C 34.192368 76.722326 32 74.374743 32 71.5 L 32 66 z M 44 66 L 49 66 L 49 73.5 A 0.50005 0.50005 0 1 0 50 73.5 L 50 66 L 55 66 L 55 68.5 A 0.50005 0.50005 0 1 0 56 68.5 L 56 66 L 61 66 L 61 77 L 56 77 L 56 70.5 A 0.50005 0.50005 0 0 0 55.492188 69.992188 A 0.50005 0.50005 0 0 0 55 70.5 L 55 77 L 50 77 L 50 75.5 A 0.50005 0.50005 0 0 0 49.492188 74.992188 A 0.50005 0.50005 0 0 0 49 75.5 L 49 77 L 44 77 L 44 66 z M 62 66 L 67 66 L 67 71.5 C 67 74.374743 64.807632 76.722326 62 76.974609 L 62 66 z" fill="#000000" />
</svg>