<svg xmlns="http://www.w3.org/2000/svg" viewBox="0 0 48 48" width="500px" height="500px">
  <path d="M 19.318359 4.0019531 C 16.116123 4.0019531 13.519982 6.2975474 12.898438 9.2929688 C 8.8940628 9.9031683 5.7285156 13.158074 5.7285156 17.273438 C 5.7285156 17.705651 5.8117816 18.086862 5.8769531 18.480469 C 4.766055 20.05501 4 21.916247 4 24 C 4 26.971127 5.1616821 29.738951 7.3925781 31.595703 C 7.258148 32.141757 7.0566406 32.661841 7.0566406 33.251953 C 7.0566406 33.367808 7.119561 33.463585 7.125 33.578125 A 1.50015 1.50015 0 0 0 7.1269531 33.589844 C 7.3195803 37.506577 10.594702 40.636719 14.601562 40.636719 C 14.707192 40.636719 14.84035 40.614898 14.957031 40.611328 C 15.874818 42.599028 17.847952 44 20.181641 44 C 23.355739 44 26 41.450036 26 38.294922 L 26 32 L 27.5 32 C 28.287991 32 29.027725 32.370091 29.5 33 L 31.009766 35.011719 C 30.364655 35.908001 30 36.947095 30 38 C 30 39.208333 30.395664 40.436821 31.253906 41.402344 C 32.112148 42.367867 33.458334 43 35 43 C 36.541666 43 37.887852 42.367867 38.746094 41.402344 C 39.604336 40.436821 40 39.208333 40 38 C 40 36.791667 39.604336 35.563179 38.746094 34.597656 C 37.887852 33.632133 36.541666 33 35 33 C 34.45115 33 33.97048 33.165816 33.484375 33.3125 L 31.900391 31.199219 C 30.862666 29.815127 29.230009 29 27.5 29 L 26 29 L 26 25.5 L 34.255859 25.5 C 34.455221 26.183949 34.754705 26.840742 35.253906 27.402344 C 36.112148 28.367867 37.458334 29 39 29 C 40.541666 29 41.887852 28.367867 42.746094 27.402344 C 43.604336 26.436821 44 25.208333 44 24 C 44 22.791667 43.604336 21.563179 42.746094 20.597656 C 41.887852 19.632133 40.541666 19 39 19 C 37.458334 19 36.112148 19.632133 35.253906 20.597656 C 34.754705 21.159258 34.455221 21.816051 34.255859 22.5 L 26 22.5 L 26 19 L 27.5 19 C 29.230009 19 30.862666 18.184873 31.900391 16.800781 L 33.484375 14.6875 C 33.97048 14.834184 34.45115 15 35 15 C 36.541666 15 37.887852 14.367867 38.746094 13.402344 C 39.604336 12.436821 40 11.208333 40 10 C 40 8.7916668 39.604336 7.5631792 38.746094 6.5976562 C 37.887852 5.6321334 36.541666 5 35 5 C 33.458334 5 32.112148 5.6321334 31.253906 6.5976562 C 30.395664 7.5631791 30 8.7916668 30 10 C 30 11.052905 30.364655 12.091999 31.009766 12.988281 L 29.5 15 C 29.027725 15.629909 28.287991 16 27.5 16 L 26 16 L 26 15.5 L 26 10.544922 C 26 6.9265456 22.969318 4.0019531 19.318359 4.0019531 z M 19.318359 7.0019531 C 21.391401 7.0019531 23 8.5912979 23 10.544922 L 23 15.5 C 23 18.330747 20.330747 21 17.5 21 A 1.50015 1.50015 0 1 0 17.5 24 C 19.597845 24 21.496693 23.118059 23 21.798828 L 23 23.753906 A 1.50015 1.50015 0 0 0 23 24.240234 L 23 30.253906 A 1.50015 1.50015 0 0 0 23 30.740234 L 23 38.294922 C 23 39.785808 21.777542 41 20.181641 41 C 18.764082 41 17.647684 40.017785 17.417969 38.771484 A 1.50015 1.50015 0 0 0 15.716797 37.560547 C 15.601181 37.578127 14.782148 37.636719 14.601562 37.636719 C 12.118203 37.636719 10.194123 35.761344 10.09375 33.429688 A 1.50015 1.50015 0 0 0 10.099609 33.283203 C 10.099609 31.194752 11.775516 29.381067 13.798828 28.970703 A 1.5007581 1.5007581 0 0 0 13.201172 26.029297 C 11.476971 26.378996 9.9357346 27.329631 8.8261719 28.650391 C 7.7236401 27.449884 7 25.952074 7 24 C 7 22.385781 7.5913126 20.930662 8.5761719 19.730469 A 1.50015 1.50015 0 0 0 8.8769531 18.433594 C 8.7828071 18.033887 8.7285156 17.649856 8.7285156 17.273438 C 8.7285156 14.391277 11.111234 12.046875 14.136719 12.046875 A 1.50015 1.50015 0 0 0 15.636719 10.546875 C 15.636719 8.5923113 17.245318 7.0019531 19.318359 7.0019531 z M 35 8 C 35.791666 8 36.195482 8.2428665 36.503906 8.5898438 C 36.81233 8.9368209 37 9.4583332 37 10 C 37 10.541667 36.81233 11.063179 36.503906 11.410156 C 36.195482 11.757133 35.791666 12 35 12 C 34.208334 12 33.804518 11.757133 33.496094 11.410156 C 33.18767 11.063179 33 10.541667 33 10 C 33 9.4583332 33.18767 8.9368209 33.496094 8.5898438 C 33.804518 8.2428665 34.208334 8 35 8 z M 16.511719 14.998047 A 1.50015 1.50015 0 0 0 16.408203 15.001953 C 14.325455 15.130725 12.864795 16.154191 12.074219 17.138672 C 11.283643 18.123153 11.039063 19.158203 11.039062 19.158203 A 1.5003883 1.5003883 0 1 0 13.960938 19.841797 C 13.960938 19.841797 14.041638 19.481347 14.414062 19.017578 C 14.786487 18.553809 15.326545 18.076275 16.591797 17.998047 A 1.5005343 1.5005343 0 0 0 16.511719 14.998047 z M 39 22 C 39.791666 22 40.195482 22.242867 40.503906 22.589844 C 40.81233 22.936821 41 23.458333 41 24 C 41 24.541667 40.81233 25.063179 40.503906 25.410156 C 40.195482 25.757133 39.791666 26 39 26 C 38.208334 26 37.804518 25.757133 37.496094 25.410156 C 37.199137 25.07608 37.030927 24.572582 37.017578 24.052734 A 1.50015 1.50015 0 0 0 37.019531 23.945312 C 37.033451 23.42645 37.199651 22.923342 37.496094 22.589844 C 37.804471 22.242867 38.208334 22 39 22 z M 17.447266 28.990234 A 1.50015 1.50015 0 0 0 16.830078 31.841797 C 16.830078 31.841797 17.010963 31.916047 17.328125 32.3125 C 17.645287 32.708953 18 33.333333 18 34.5 A 1.50015 1.50015 0 1 0 21 34.5 C 21 32.666667 20.354713 31.291047 19.671875 30.4375 C 18.989037 29.583953 18.169922 29.158203 18.169922 29.158203 A 1.50015 1.50015 0 0 0 17.447266 28.990234 z M 35 36 C 35.791666 36 36.195482 36.242867 36.503906 36.589844 C 36.81233 36.936821 37 37.458333 37 38 C 37 38.541667 36.81233 39.063179 36.503906 39.410156 C 36.195482 39.757133 35.791666 40 35 40 C 34.208334 40 33.804518 39.757133 33.496094 39.410156 C 33.18767 39.063179 33 38.541667 33 38 C 33 37.458333 33.18767 36.936821 33.496094 36.589844 C 33.804518 36.242867 34.208334 36 35 36 z" fill="#000000" />
</svg>