<svg xmlns="http://www.w3.org/2000/svg" viewBox="0 0 64 64" width="500px" height="500px">
  <linearGradient id="4bngUE9Uz17cMxG7nZxqDa" x1="18" x2="18" y1="15.125" y2="25.288" gradientUnits="userSpaceOnUse" spreadMethod="reflect">
    <stop offset="0" stop-color="#6dc7ff" />
    <stop offset="1" stop-color="#e6abff" />
  </linearGradient>
  <path fill="url(#4bngUE9Uz17cMxG7nZxqDa)" d="M18.612,15.501l0.285,1.412c0.223,1.104,1.085,1.967,2.189,2.189l1.412,0.285 c0.668,0.135,0.668,1.09,0,1.225l-1.412,0.285c-1.104,0.223-1.967,1.085-2.189,2.189l-0.285,1.412c-0.135,0.668-1.09,0.668-1.225,0 l-0.285-1.412c-0.223-1.104-1.085-1.967-2.189-2.189l-1.412-0.285c-0.668-0.135-0.668-1.09,0-1.225l1.412-0.285 c1.104-0.223,1.967-1.085,2.189-2.189l0.285-1.412C17.522,14.833,18.478,14.833,18.612,15.501z" />
  <linearGradient id="4bngUE9Uz17cMxG7nZxqDb" x1="32" x2="32" y1="7.833" y2="56.674" gradientUnits="userSpaceOnUse" spreadMethod="reflect">
    <stop offset="0" stop-color="#1a6dff" />
    <stop offset="1" stop-color="#c822ff" />
  </linearGradient>
  <path fill="url(#4bngUE9Uz17cMxG7nZxqDb)" d="M53,27h-3v-4c0-2.757-2.243-5-5-5h-2c-1.641,0-3.088,0.806-4,2.031 C38.088,18.806,36.641,18,35,18h-2c-1.152,0-2.201,0.407-3.047,1.065C29.472,12.884,24.301,8,18,8C11.383,8,6,13.383,6,20 c0,4.74,2.726,8.946,7,10.9V33c-1.103,0-2,0.897-2,2v2c0,1.103,0.897,2,2,2h1v1c0,1.103,0.897,2,2,2h4c0,2.415,1.721,4.434,4,4.899 V51c0,2.757,2.243,5,5,5h6c1.641,0,3.088-0.806,4-2.031C39.912,55.194,41.359,56,43,56h6c2.757,0,5-2.243,5-5v-4.101 c2.279-0.465,4-2.484,4-4.899V32C58,29.243,55.757,27,53,27z M14.364,29.307C10.498,27.795,8,24.142,8,20c0-5.514,4.486-10,10-10 s10,4.486,10,10c0,4.142-2.498,7.795-6.364,9.307L21,29.556V33h-2v-3h-2v3h-2v-3.444L14.364,29.307z M13,35h10v2H13V35z M16,40v-1h4 v1H16z M56,42c0,1.654-1.346,3-3,3h-5c-1.654,0-3,1.346-3,3v2h2v-2c0-0.552,0.448-1,1-1h4v4c0,1.654-1.346,3-3,3h-6 c-1.654,0-3-1.346-3-3v-3v-3c0-0.552,0.448-1,1-1h2v-2h-2c-1.654,0-3,1.346-3,3v3v3c0,1.654-1.346,3-3,3h-6c-1.654,0-3-1.346-3-3v-4 h4c0.552,0,1,0.448,1,1v2h2v-2c0-1.654-1.346-3-3-3h-5c-1.654,0-3-1.346-3-3v-2v-1h1c1.103,0,2-0.897,2-2v-2c0-1.103-0.897-2-2-2 v-2.1c1.113-0.509,2.118-1.173,3-1.957V29h2v3h2v-7v-2c0-1.654,1.346-3,3-3h2c1.654,0,3,1.346,3,3v8v1c0,0.552-0.448,1-1,1h-2v2h2 c1.654,0,3-1.346,3-3v-1v-8c0-1.654,1.346-3,3-3h2c1.654,0,3,1.346,3,3v9h2v-3h3c1.654,0,3,1.346,3,3V42z" />
</svg>